<?xml version="1.0" encoding="UTF-8" standalone="no"?>
<!-- Created with Inkscape (http://www.inkscape.org/) -->

<svg
   width="210mm"
   height="297mm"
   viewBox="0 0 210 297"
   version="1.1"
   id="svg5"
   xml:space="preserve"
   inkscape:version="1.2.1 (9c6d41e410, 2022-07-14)"
   sodipodi:docname="dessin.svg"
   xmlns:inkscape="http://www.inkscape.org/namespaces/inkscape"
   xmlns:sodipodi="http://sodipodi.sourceforge.net/DTD/sodipodi-0.dtd"
   xmlns="http://www.w3.org/2000/svg"
   xmlns:svg="http://www.w3.org/2000/svg"><sodipodi:namedview
     id="namedview7"
     pagecolor="#505050"
     bordercolor="#ffffff"
     borderopacity="1"
     inkscape:showpageshadow="0"
     inkscape:pageopacity="0"
     inkscape:pagecheckerboard="1"
     inkscape:deskcolor="#505050"
     inkscape:document-units="mm"
     showgrid="false"
     inkscape:zoom="1.0544998"
     inkscape:cx="212.423"
     inkscape:cy="448.55391"
     inkscape:window-width="1920"
     inkscape:window-height="1017"
     inkscape:window-x="-8"
     inkscape:window-y="-8"
     inkscape:window-maximized="1"
     inkscape:current-layer="layer1" /><defs
     id="defs2"><rect
       x="236.13092"
       y="247.51072"
       width="229.4927"
       height="162.1622"
       id="rect9090" /><rect
       x="232.33765"
       y="244.66577"
       width="309.15132"
       height="171.64537"
       id="rect8718" /></defs><g
     inkscape:label="Calque 1"
     inkscape:groupmode="layer"
     id="layer1"><rect
       style="fill:#ffffff;fill-opacity:1;stroke:none;stroke-width:3.38338"
       id="rect234"
       width="146.83548"
       height="152.48337"
       x="8.2547741"
       y="33.800102"
       inkscape:export-filename="rect234.png"
       inkscape:export-xdpi="96"
       inkscape:export-ydpi="96" /><path
       style="fill:#00228a;fill-opacity:1;stroke:none;stroke-width:0.53898;stroke-dasharray:none;stroke-opacity:1"
       id="path7708-8"
       sodipodi:type="arc"
       sodipodi:cx="99.736267"
       sodipodi:cy="48.878437"
       sodipodi:rx="10.142613"
       sodipodi:ry="10.683554"
       sodipodi:start="5.3668803"
       sodipodi:end="5.3665485"
       sodipodi:open="true"
       sodipodi:arc-type="arc"
       d="M 105.91064,40.402558 A 10.142613,10.683554 0 0 1 107.7835,55.381409 10.142613,10.683554 0 0 1 93.563228,57.355395 10.142613,10.683554 0 0 1 91.68801,42.376872 10.142613,10.683554 0 0 1 105.90797,40.4004" /><path
       style="fill:#00228a;fill-opacity:1;stroke:none;stroke-width:0.53898;stroke-dasharray:none;stroke-opacity:1"
       id="path7708-8-2"
       sodipodi:type="arc"
       sodipodi:cx="77.890892"
       sodipodi:cy="46.344646"
       sodipodi:rx="10.142613"
       sodipodi:ry="10.683554"
       sodipodi:start="5.3668803"
       sodipodi:end="5.3665485"
       sodipodi:open="true"
       sodipodi:arc-type="arc"
       d="M 84.065266,37.868767 A 10.142613,10.683554 0 0 1 85.938125,52.847618 10.142613,10.683554 0 0 1 71.717853,54.821605 10.142613,10.683554 0 0 1 69.842635,39.843081 10.142613,10.683554 0 0 1 84.062596,37.866609" /><path
       style="fill:#00228a;fill-opacity:1;stroke:none;stroke-width:0.53898;stroke-dasharray:none;stroke-opacity:1"
       id="path7708-8-2-1"
       sodipodi:type="arc"
       sodipodi:cx="57.407696"
       sodipodi:cy="53.628387"
       sodipodi:rx="10.142613"
       sodipodi:ry="10.683554"
       sodipodi:start="5.3668803"
       sodipodi:end="5.3665485"
       sodipodi:open="true"
       sodipodi:arc-type="arc"
       d="M 63.58207,45.152508 A 10.142613,10.683554 0 0 1 65.454928,60.131359 10.142613,10.683554 0 0 1 51.234657,62.105346 10.142613,10.683554 0 0 1 49.359439,47.126822 10.142613,10.683554 0 0 1 63.5794,45.15035" /><path
       style="fill:#00228a;fill-opacity:1;stroke:none;stroke-width:0.53898;stroke-dasharray:none;stroke-opacity:1"
       id="path7708-8-2-4"
       sodipodi:type="arc"
       sodipodi:cx="43.914276"
       sodipodi:cy="70.403618"
       sodipodi:rx="10.142613"
       sodipodi:ry="10.683554"
       sodipodi:start="5.3668803"
       sodipodi:end="5.3665485"
       sodipodi:open="true"
       sodipodi:arc-type="arc"
       d="M 50.08865,61.927738 A 10.142613,10.683554 0 0 1 51.961509,76.90659 10.142613,10.683554 0 0 1 37.741237,78.880576 10.142613,10.683554 0 0 1 35.86602,63.902052 10.142613,10.683554 0 0 1 50.08598,61.925581" /><path
       style="fill:#00228a;fill-opacity:1;stroke:none;stroke-width:0.53898;stroke-dasharray:none;stroke-opacity:1"
       id="path7708-8-2-6"
       sodipodi:type="arc"
       sodipodi:cx="41.6026"
       sodipodi:cy="91.946121"
       sodipodi:rx="10.142613"
       sodipodi:ry="10.683554"
       sodipodi:start="5.3668803"
       sodipodi:end="5.3665485"
       sodipodi:open="true"
       sodipodi:arc-type="arc"
       d="M 47.776974,83.470242 A 10.142613,10.683554 0 0 1 49.649833,98.449093 10.142613,10.683554 0 0 1 35.429561,100.42308 10.142613,10.683554 0 0 1 33.554343,85.444556 10.142613,10.683554 0 0 1 47.774304,83.468084" /><path
       style="fill:#00228a;fill-opacity:1;stroke:none;stroke-width:0.53898;stroke-dasharray:none;stroke-opacity:1"
       id="path7708-8-2-64"
       sodipodi:type="arc"
       sodipodi:cx="66.64827"
       sodipodi:cy="123.70329"
       sodipodi:rx="10.142613"
       sodipodi:ry="10.683554"
       sodipodi:start="5.3668803"
       sodipodi:end="5.3665485"
       sodipodi:open="true"
       sodipodi:arc-type="arc"
       d="m 72.822644,115.22741 a 10.142613,10.683554 0 0 1 1.872858,14.97885 10.142613,10.683554 0 0 1 -14.220272,1.97399 10.142613,10.683554 0 0 1 -1.875217,-14.97852 10.142613,10.683554 0 0 1 14.219961,-1.97647" /><path
       style="fill:#00228a;fill-opacity:1;stroke:none;stroke-width:0.53898;stroke-dasharray:none;stroke-opacity:1"
       id="path7708-8-2-64-1"
       sodipodi:type="arc"
       sodipodi:cx="50.032261"
       sodipodi:cy="111.59678"
       sodipodi:rx="10.142613"
       sodipodi:ry="10.683554"
       sodipodi:start="5.3668803"
       sodipodi:end="5.3665485"
       sodipodi:open="true"
       sodipodi:arc-type="arc"
       d="m 56.206635,103.1209 a 10.142613,10.683554 0 0 1 1.872858,14.97885 10.142613,10.683554 0 0 1 -14.220271,1.97399 10.142613,10.683554 0 0 1 -1.875218,-14.97853 10.142613,10.683554 0 0 1 14.219961,-1.97647" /><path
       style="fill:#00228a;fill-opacity:1;stroke:none;stroke-width:0.53898;stroke-dasharray:none;stroke-opacity:1"
       id="path7708-8-2-7"
       sodipodi:type="arc"
       sodipodi:cx="87.369781"
       sodipodi:cy="125.54052"
       sodipodi:rx="10.142613"
       sodipodi:ry="10.683554"
       sodipodi:start="5.3668803"
       sodipodi:end="5.3665485"
       sodipodi:open="true"
       sodipodi:arc-type="arc"
       d="m 93.544156,117.06464 a 10.142613,10.683554 0 0 1 1.872858,14.97885 10.142613,10.683554 0 0 1 -14.220272,1.97399 10.142613,10.683554 0 0 1 -1.875217,-14.97853 10.142613,10.683554 0 0 1 14.219961,-1.97647" /><path
       style="fill:#00228a;fill-opacity:1;stroke:none;stroke-width:0.53898;stroke-dasharray:none;stroke-opacity:1"
       id="path7708-8-2-10"
       sodipodi:type="arc"
       sodipodi:cx="106.0053"
       sodipodi:cy="117.8054"
       sodipodi:rx="10.142613"
       sodipodi:ry="10.683554"
       sodipodi:start="5.3668803"
       sodipodi:end="5.3665485"
       sodipodi:open="true"
       sodipodi:arc-type="arc"
       d="m 112.17968,109.32952 a 10.142613,10.683554 0 0 1 1.87285,14.97885 10.142613,10.683554 0 0 1 -14.220267,1.97399 10.142613,10.683554 0 0 1 -1.875217,-14.97853 10.142613,10.683554 0 0 1 14.219964,-1.97647" /><g
       id="g4787"
       style="fill:#320049;fill-opacity:1"><path
         style="fill:#320049;fill-opacity:1;stroke:none;stroke-width:4.99999"
         d="m 17.209677,69.903225 c -2.973639,0.360238 -6.579238,21.113152 -8.5161286,37.080645 -0.6367257,11.21832 4.0528626,25.20106 6.2983866,30.87097 1.970802,4.97624 32.184352,31.07384 33.221773,34.41935 0.989087,3.18963 1.28629,9.93549 1.28629,9.93549 6.083981,6.34558 22.746659,4.42892 27.970454,1.34678 0.501139,-1.95094 0.558638,-4.34335 0.401242,-6.50684 -0.64437,-8.85715 -1.842614,-12.46721 -5.908226,-22.84334 -1.386412,-3.53837 -2.431453,-7.87709 -5.788536,-13.16243 -1.813866,-2.85572 -4.579898,-5.57462 -7.271706,-7.80192 L 48.833371,128.2007 c -3.50219,-2.93538 -3.03439,-5.85877 -15.877185,-17.94533 -0.05954,-7.93272 0.290821,-16.577185 -1.331186,-20.791661 -3.796981,-5.86173 -2.932149,2.040676 -3.235109,0.520527 -0.607328,-3.047358 2.138969,-11.10186 -3.017961,-13.448554 -2.312112,-1.052141 -2.12572,2.366923 -2.12572,2.366923 0.127018,-1.411038 -0.516638,-5.83688 -1.56051,-6.913379 0.139849,0.506954 -1.502384,-2.446239 -4.476023,-2.086001 z"
         id="path2677"
         sodipodi:nodetypes="zcssccsssccccssccz" /><path
         style="fill:#320049;fill-opacity:1;stroke:#ffffff;stroke-width:1;stroke-dasharray:none;stroke-opacity:1"
         d="M 23.500258,74.037949 22.895433,109.58445"
         id="path2883"
         sodipodi:nodetypes="cc" /><path
         style="fill:#320049;fill-opacity:1;stroke:#ffffff;stroke-width:1;stroke-dasharray:none;stroke-opacity:1"
         d="m 28.987583,86.250458 0.106729,21.923632"
         id="path2883-0"
         sodipodi:nodetypes="cc" /><path
         style="fill:#320049;fill-opacity:1;stroke:#ffffff;stroke-width:1;stroke-dasharray:none;stroke-opacity:1"
         d="m 33,109.82258 c 0,0 -9.935484,-5.5 -10.290323,1.24193 -0.354839,6.74194 13.838711,24.83871 13.838711,24.83871"
         id="path3262" /></g><g
       id="g4781"
       transform="matrix(-1,0,0,1,225.9738,0.29656933)"
       style="fill:#320049;fill-opacity:1"><path
         style="fill:#320049;fill-opacity:1;stroke:none;stroke-width:4.99999"
         d="m 80.369291,69.497995 c -2.973639,0.360238 -6.579238,21.113148 -8.516129,37.080645 -0.636725,11.21832 4.052863,25.20106 6.298387,30.87097 1.970802,4.97624 32.184351,31.07384 33.221771,34.41935 0.98909,3.18963 1.28629,9.93549 1.28629,9.93549 6.08398,6.34558 22.74666,4.42892 27.97045,1.34678 0.50114,-1.95094 0.55864,-4.34335 0.40124,-6.50684 -0.64437,-8.85715 -1.84261,-12.46721 -5.90822,-22.84334 -1.38641,-3.53837 -2.43146,-7.87709 -5.78854,-13.16243 -1.81387,-2.85572 -4.5799,-5.57462 -7.2717,-7.80192 l -10.06986,-5.04123 c -3.50219,-2.93538 -3.03439,-5.85877 -15.87718,-17.94533 -0.05954,-7.93272 0.290821,-16.577187 -1.331186,-20.791657 -3.796981,-5.86173 -2.932149,2.04067 -3.235109,0.52052 -0.607328,-3.04735 2.138969,-11.10186 -3.017961,-13.44855 -2.312112,-1.05214 -2.12572,2.36692 -2.12572,2.36692 0.127018,-1.41104 -0.516638,-5.83688 -1.56051,-6.913377 0.139849,0.506957 -1.502384,-2.446239 -4.476023,-2.086001 z"
         id="path2677-7"
         sodipodi:nodetypes="zcssccsssccccssccz" /><path
         style="fill:#320049;fill-opacity:1;stroke:#ffffff;stroke-width:1;stroke-dasharray:none;stroke-opacity:1"
         d="M 86.659872,73.632723 86.055047,109.17922"
         id="path2883-4"
         sodipodi:nodetypes="cc" /><path
         style="fill:#320049;fill-opacity:1;stroke:#ffffff;stroke-width:1;stroke-dasharray:none;stroke-opacity:1"
         d="m 92.147197,85.845233 0.106729,21.923627"
         id="path2883-0-5"
         sodipodi:nodetypes="cc" /><path
         style="fill:#320049;fill-opacity:1;stroke:#ffffff;stroke-width:1;stroke-dasharray:none;stroke-opacity:1"
         d="m 96.159614,109.41735 c 0,0 -9.935484,-5.5 -10.290323,1.24193 -0.354839,6.74194 13.838711,24.83871 13.838711,24.83871"
         id="path3262-2" /></g><path
       style="fill:none;fill-opacity:1;stroke:#00981d;stroke-width:1.19503;stroke-dasharray:none;stroke-opacity:1"
       id="path4899"
       sodipodi:type="arc"
       sodipodi:cx="81.525345"
       sodipodi:cy="85.810936"
       sodipodi:rx="51.813881"
       sodipodi:ry="51.595383"
       sodipodi:start="0.79940637"
       sodipodi:end="5.3665485"
       sodipodi:arc-type="arc"
       d="M 117.64648,122.80185 A 51.813881,51.595383 0 0 1 46.169452,123.52784 51.813881,51.595383 0 0 1 41.981991,52.470767 51.813881,51.595383 0 0 1 113.0537,44.866923"
       sodipodi:open="true" /><text
       xml:space="preserve"
       transform="scale(0.26458333)"
       id="text8716"
       style="font-style:normal;font-variant:normal;font-weight:normal;font-stretch:normal;font-size:22.6667px;font-family:Consolas;-inkscape-font-specification:'Consolas, Normal';font-variant-ligatures:normal;font-variant-caps:normal;font-variant-numeric:normal;font-variant-east-asian:normal;white-space:pre;shape-inside:url(#rect8718);display:inline;fill:none;fill-opacity:1;stroke:#ec0000;stroke-width:3.77953;stroke-dasharray:none;stroke-opacity:1" /><text
       xml:space="preserve"
       transform="matrix(0.26458333,0,0,0.26458333,-2.1290323,3.1935484)"
       id="text9088"
       style="font-style:normal;font-variant:normal;font-weight:normal;font-stretch:normal;font-size:133.333px;font-family:'Microsoft Himalaya';-inkscape-font-specification:'Microsoft Himalaya, Normal';font-variant-ligatures:normal;font-variant-caps:normal;font-variant-numeric:normal;font-variant-east-asian:normal;white-space:pre;shape-inside:url(#rect9090);display:inline;fill:#00981d;fill-opacity:1;stroke:none;stroke-width:0.755906;stroke-dasharray:none;stroke-opacity:1"><tspan
         x="236.13086"
         y="343.08244"
         id="tspan25813">54 bis</tspan></text></g></svg>
